<svg width="48" height="48" viewBox="0 0 48 48" fill="none" xmlns="http://www.w3.org/2000/svg">
  <circle cx="24" cy="14" r="9" fill="#E1B016"/>
  <circle cx="24" cy="14" r="6.5" fill="#F5C842"/>
  <line x1="24" y1="0" x2="24" y2="3" stroke="#E1B016" stroke-width="2" stroke-linecap="round"/>
  <line x1="33.9" y1="4.1" x2="36" y2="2" stroke="#E1B016" stroke-width="2" stroke-linecap="round"/>
  <line x1="38" y1="14" x2="41" y2="14" stroke="#E1B016" stroke-width="2" stroke-linecap="round"/>
  <line x1="33.9" y1="23.9" x2="36" y2="26" stroke="#E1B016" stroke-width="2" stroke-linecap="round"/>
  <line x1="24" y1="28" x2="24" y2="31" stroke="#E1B016" stroke-width="2" stroke-linecap="round"/>
  <line x1="14.1" y1="23.9" x2="12" y2="26" stroke="#E1B016" stroke-width="2" stroke-linecap="round"/>
  <line x1="10" y1="14" x2="7" y2="14" stroke="#E1B016" stroke-width="2" stroke-linecap="round"/>
  <line x1="14.1" y1="4.1" x2="12" y2="2" stroke="#E1B016" stroke-width="2" stroke-linecap="round"/>
  <path d="M10 42V24.5L24 14.5L38 24.5V42H10Z" fill="#027749"/>
  <path d="M10 24.5L24 14.5L38 24.5L24 19L10 24.5Z" fill="#039855"/>
  <rect x="20" y="32" width="8" height="10" rx="1" fill="#F5C842"/>
  <rect x="14" y="27" width="6" height="6" rx="1" fill="#80C5BC"/>
  <rect x="28" y="27" width="6" height="6" rx="1" fill="#80C5BC"/>
  <path d="M24 22.5C22.5 21 20 21.2 19 22.8C18 21.2 15.5 21 14 22.5C12.5 24 14 26.5 19 29.5C24 26.5 25.5 24 24 22.5Z" fill="#FE80C9" opacity="0.9"/>
</svg>
